<?xml version="1.0" encoding="utf-8"?>
<!-- Generator: Adobe Illustrator 13.0.0, SVG Export Plug-In . SVG Version: 6.00 Build 14948)  -->
<!DOCTYPE svg PUBLIC "-//W3C//DTD SVG 1.0//EN" "http://www.w3.org/TR/2001/REC-SVG-20010904/DTD/svg10.dtd">
<svg version="1.0" id="Layer_1" xmlns="http://www.w3.org/2000/svg" xmlns:xlink="http://www.w3.org/1999/xlink" x="0px" y="0px"
	 width="500px" height="500px" viewBox="-21.515 -79.534 500 500" enable-background="new -21.515 -79.534 500 500"
	 xml:space="preserve">
<path fill="#231F20" d="M310.544,236.656c-8.551,0-15.484,8.309-15.484,18.556c0,10.251,6.934,18.56,15.484,18.56
	c8.553,0,15.484-8.309,15.484-18.56C326.028,244.965,319.097,236.656,310.544,236.656z M173.427,236.656
	c-8.552,0-15.485,8.309-15.485,18.556c0,10.251,6.933,18.56,15.485,18.56c8.552,0,15.485-8.309,15.485-18.56
	C188.912,244.965,181.979,236.656,173.427,236.656z M461.612,238.717c-7.515-6.657-17.786-10.689-29.082-10.691
	c-3.472,0.002-6.869,0.399-10.104,1.12c-19.842-72.417-89.237-125.584-171.576-125.588c-1.688,0-3.367,0.031-5.044,0.076
	c-0.245-0.04-0.492-0.076-0.748-0.076c-1.542,0-3.061,0.106-4.554,0.29c-1.786,0.098-3.565,0.217-5.339,0.364l-29.158-57.174
	c-1.185-2.327-4.033-3.252-6.36-2.065c-2.325,1.187-3.25,4.032-2.063,6.359l27.534,53.989c-1.51,0.208-3.016,0.431-4.513,0.674
	L198.79,82.051c-1.76-1.929-4.75-2.07-6.681-0.31c-1.929,1.759-2.067,4.75-0.311,6.678l17.933,19.681
	C146.473,122.323,96.26,168.626,79.553,228.03c-0.439-0.003-0.867-0.003-1.28-0.004c-11.246,0.002-21.508,4.037-29.036,10.687
	c-7.52,6.63-12.342,16.023-12.337,26.429c-0.005,10.408,4.818,19.8,12.337,26.428c7.151,6.319,16.771,10.276,27.359,10.657
	c15.399,78.088,87.607,137.029,174.254,137.031c86.802,0,159.285-59.104,174.371-137.606c2.347,0.386,4.781,0.607,7.309,0.607
	c11.244-0.005,21.509-4.038,29.032-10.689c7.521-6.628,12.344-16.02,12.34-26.428C473.906,254.748,469.12,245.353,461.612,238.717z
	 M455.302,284.486c-5.745,5.081-13.803,8.318-22.771,8.313c-3.421,0-6.655-0.513-9.892-1.376l-5.063-1.351l-0.825,5.174
	c-12.111,76.039-81.691,134.555-165.899,134.555c-83.744,0.002-152.872-57.941-165.671-133.186l-0.773-4.537l-4.554,0.651
	c-0.45,0.064-0.863,0.071-1.579,0.071c-8.969,0.003-17.029-3.234-22.771-8.315c-5.748-5.103-9.141-11.901-9.146-19.345
	c0.005-7.442,3.398-14.243,9.146-19.343c5.742-5.082,13.802-8.318,22.771-8.316c1.65-0.005,3.092,0.017,4.126,0.181l4.244,0.654
	l1.056-4.163c15.05-59.195,65.613-105.655,129.435-117.938c-5.765,6.555-9.268,15.143-9.271,24.54c0,0.863,0.03,1.733,0.09,2.608
	c1.249,18.046,15.5,32.856,33.607,34.523c1.189,0.11,2.38,0.166,3.568,0.166h0.006c14.45,0.001,26.988-8.223,33.103-20.356
	c1.849-3.603,3.085-7.744,3.089-12.126c0.003-1.143-0.083-2.305-0.27-3.472c-0.664-4.562-2.586-8.833-5.848-12.033
	c-3.248-3.218-7.884-5.17-13.042-5.144c-3.299,0-6.797,0.748-10.435,2.244c-0.483,0.181-0.768,0.337-0.927,0.413
	c-0.021,0.011-0.039,0.019-0.054,0.027l-0.227,0.076l-0.333,0.175c-7.311,3.83-11.512,11.296-11.503,19.03
	c0,2.043,0.291,4.107,0.89,6.125c0.744,2.504,3.376,3.93,5.879,3.188c2.503-0.744,3.932-3.376,3.188-5.879
	c-0.339-1.139-0.502-2.294-0.502-3.435c0.01-4.28,2.253-8.361,6.226-10.541c0.327-0.136,0.536-0.249,0.662-0.309
	c0.021-0.01,0.04-0.02,0.055-0.027l0.006-0.002l0.169-0.068c2.723-1.13,5.026-1.562,6.905-1.56c2.92,0.027,4.854,0.938,6.426,2.44
	c1.551,1.514,2.695,3.808,3.11,6.66l0.01,0.068v0.01c0.106,0.653,0.158,1.326,0.158,2.014c0.005,2.552-0.756,5.307-2.061,7.836
	c-4.604,9.085-13.871,15.187-24.682,15.188c-0.888,0.002-1.794-0.042-2.713-0.124c-13.343-1.17-24.15-12.366-25.029-25.753
	c-0.046-0.666-0.068-1.316-0.068-1.962c0.027-14.035,10.515-25.673,24.088-27.488c3.127-0.164,6.275-0.255,9.444-0.255
	c79.941-0.005,146.677,52.763,163.607,123.094l1.215,5.049l4.915-1.683c3.651-1.255,7.766-1.994,11.942-1.991
	c9.033-0.002,17.085,3.234,22.811,8.313c5.728,5.093,9.099,11.892,9.104,19.346C464.439,272.585,461.049,279.384,455.302,284.486z
	 M244.941,326.608h0.023c10.152,0.002,18.784-6.785,21.325-16.263l0.024-0.09l0.02-0.078c0.402-1.762,0.71-3.65,0.71-5.673
	c0-2.611-2.117-4.726-4.726-4.726c-2.612,0-4.729,2.114-4.729,4.726c0,1.016-0.158,2.158-0.443,3.429
	c-1.492,5.381-6.313,9.209-12.205,9.216c-6.953-0.009-12.636-5.695-12.647-12.645c0.011-6.951,5.696-12.638,12.647-12.649
	c2.611,0,4.728-2.117,4.728-4.728c0-2.614-2.117-4.729-4.728-4.729c-12.199,0.012-22.094,9.909-22.104,22.105
	C222.847,316.704,232.742,326.597,244.941,326.608z M433.238,248.947c-2.612,0-4.729,2.117-4.729,4.729
	c0,2.611,2.116,4.729,4.729,4.729c4.354,0.007,7.913,3.564,7.919,7.919c-0.006,4.352-3.564,7.911-7.919,7.919
	c-2.612,0-4.729,2.119-4.729,4.73c0,2.61,2.116,4.726,4.729,4.726c9.596-0.007,17.367-7.78,17.378-17.375
	C450.605,256.729,442.834,248.957,433.238,248.947z M74.726,258.403c2.612,0,4.729-2.115,4.729-4.727
	c0-2.61-2.117-4.729-4.729-4.729c-9.594,0.01-17.368,7.781-17.377,17.376c0.01,9.595,7.783,17.368,17.377,17.377
	c2.612,0,4.729-2.117,4.729-4.73c0-2.611-2.117-4.726-4.729-4.726c-4.355-0.01-7.912-3.567-7.919-7.921
	C66.814,261.972,70.371,258.412,74.726,258.403z M311.925,195.893c-8.337,0.056-14.227,3.794-14.621,3.995
	c-2.224,1.373-2.912,4.285-1.54,6.508c1.368,2.219,4.272,2.909,6.493,1.548v0c0.003-0.001,0.005-0.002,0.007-0.005
	c0.004-0.001,0.006-0.003,0.009-0.005h-0.002c0.347-0.233,4.793-2.631,9.654-2.585c4.477,0.127,9.24,1.414,14.129,8.895
	c0.899,1.42,2.433,2.198,3.997,2.198c0.866,0,1.742-0.237,2.527-0.735c2.203-1.397,2.86-4.319,1.464-6.525
	C327.862,199.202,318.981,195.766,311.925,195.893z M171.333,205.35c2.637-0.004,5.148,0.657,6.957,1.34
	c0.901,0.34,1.625,0.681,2.099,0.923c0.239,0.121,0.413,0.215,0.514,0.272c0.04,0.022,0.069,0.04,0.087,0.05l0,0.001
	c2.222,1.369,5.136,0.681,6.508-1.541c1.369-2.222,0.681-5.136-1.541-6.508c-0.396-0.201-6.286-3.938-14.624-3.994
	c-7.056-0.128-15.939,3.308-22.114,13.29c-1.399,2.205-0.742,5.126,1.463,6.525c0.785,0.497,1.661,0.734,2.526,0.734
	c1.567,0,3.099-0.777,3.999-2.2C162.09,206.763,166.856,205.476,171.333,205.35z M249.669,336.063
	c-17.654,0.022-31.899,14.401-31.917,31.917c0.02,17.654,14.4,31.899,31.917,31.915c17.653-0.021,31.897-14.401,31.915-31.915
	C281.563,350.327,267.184,336.078,249.669,336.063z M265.543,383.819c-4.087,4.091-9.676,6.617-15.874,6.617
	c-6.146,0-11.744-2.505-15.841-6.582c-4.092-4.087-6.616-9.674-6.619-15.875c0.002-6.146,2.505-11.742,6.585-15.842
	c4.086-4.089,9.672-6.617,15.875-6.617c6.143,0,11.743,2.503,15.84,6.585c4.09,4.086,6.616,9.673,6.616,15.874
	C272.125,374.123,269.623,379.722,265.543,383.819z M257.223,356.99c-2.586-0.729-4.977-0.845-6.54-0.85
	c-0.409,0-0.762,0.01-1.049,0.021c-1.959,0.086-3.477,1.741-3.391,3.696c0.085,1.958,1.739,3.478,3.697,3.392
	c0.189-0.012,0.442-0.019,0.743-0.019c1.532-0.016,4.268,0.235,6.116,1.146c0.94,0.45,1.625,0.992,2.09,1.662
	c0.457,0.674,0.806,1.523,0.817,3.059c0,0.67-0.079,1.476-0.275,2.429c-0.479,2.567-2.29,4.869-4.52,5.888
	c-1.121,0.523-2.403,0.804-3.647,0.801c-1.505,0.003-2.92-0.404-4.006-1.131c-1.526-0.979-2.658-3.087-2.628-4.94
	c0.002-0.46,0.06-0.896,0.176-1.303c0.535-1.881-0.557-3.844-2.439-4.379c-1.885-0.536-3.845,0.554-4.38,2.438
	c-0.31,1.083-0.448,2.175-0.448,3.244c0.032,4.356,2.198,8.408,5.789,10.846c2.41,1.596,5.195,2.315,7.938,2.318
	c2.273-0.003,4.544-0.49,6.639-1.464c4.386-2.058,7.541-6.135,8.484-10.935c0.269-1.311,0.41-2.588,0.41-3.812
	c0.013-2.754-0.76-5.225-2.091-7.119C262.692,359.116,259.777,357.723,257.223,356.99z"/>
</svg>
